# xmcd CD database file
#
# Track frame offsets:
#	150
#	14570
#	29821
#	41990
#	55375
#	70011
#	81655
#	96450
#	108082
#	119786
#	133093
#	146657
#	160436
#	175916
#	188545
#	201459
#	214279
#	227368
#	241442
#	254379
#
# Disc length: 3559 seconds
#
# Revision: 0
# Processed by: cddbd v1.5.2PL0 Copyright (c) Steve Scherf et al.
# Submitted via: CDex 1.51
#
DISCID=3b0de514
DTITLE=Sarah Vaughan - Sinner or Saint
DYEAR=1900
DGENRE=Blues
TTITLE0=It's magic
TTITLE1=That Lucky old Sun
TTITLE2=Make believe
TTITLE3=I'm crazy to love you
TTITLE4=Our very own
TTITLE5=I love the guy
TTITLE6=Thinking of you
TTITLE7=These things i offer you
TTITLE8=Vanity
TTITLE9=Sinner or Saint
TTITLE10=My tormented heart
TTITLE11=Time
TTITLE12=Goodnight my love
TTITLE13=What a difference a day made
TTITLE14=How am i to know ?
TTITLE15=If you could see me know
TTITLE16=Fool's paradise
TTITLE17=Tenderly
TTITLE18=East of the sun
TTITLE19=I could make you love me
EXTD=
EXTT0=
EXTT1=
EXTT2=
EXTT3=
EXTT4=
EXTT5=
EXTT6=
EXTT7=
EXTT8=
EXTT9=
EXTT10=
EXTT11=
EXTT12=
EXTT13=
EXTT14=
EXTT15=
EXTT16=
EXTT17=
EXTT18=
EXTT19=
PLAYORDER=
